<svg width="59" height="63" viewBox="0 0 59 63" fill="none" xmlns="http://www.w3.org/2000/svg">
<g filter="url(#filter0_d_565_1085)">
<path fill-rule="evenodd" clip-rule="evenodd" d="M32.9091 47.0351C33.053 46.7858 33.2984 46.612 33.5792 46.5488C41.8338 44.6912 48 37.3157 48 28.5C48 18.2827 39.7173 10 29.5 10C19.2827 10 11 18.2827 11 28.5C11 37.6012 17.572 45.1674 26.2293 46.7118C26.5286 46.7652 26.7932 46.9435 26.9452 47.2068L29.0116 50.7858C29.3965 51.4525 30.3587 51.4525 30.7436 50.7858L32.9091 47.0351Z" fill="white"/>
</g>
<path d="M45 28.5C45 37.0604 38.0604 44 29.5 44C20.9396 44 14 37.0604 14 28.5C14 19.9396 20.9396 13 29.5 13C38.0604 13 45 19.9396 45 28.5Z" fill="#FFDDDD"/>
<path fill-rule="evenodd" clip-rule="evenodd" d="M25.4014 19.25H34.1135V24.4015L38.75 24.4015V32.5985H34.1135V37.75H25.4014V32.5985H20.25V24.4015L25.4014 24.4015V19.25ZM26.9014 20.75V25.9015L21.75 25.9015V31.0985H26.9014V36.25H32.6135V31.0985H37.25V25.9015L32.6135 25.9015V20.75H26.9014Z" fill="#F6B0B0"/>
<defs>
<filter id="filter0_d_565_1085" x="0.6" y="0.6" width="57.8" height="62.0859" filterUnits="userSpaceOnUse" color-interpolation-filters="sRGB">
<feFlood flood-opacity="0" result="BackgroundImageFix"/>
<feColorMatrix in="SourceAlpha" type="matrix" values="0 0 0 0 0 0 0 0 0 0 0 0 0 0 0 0 0 0 127 0" result="hardAlpha"/>
<feOffset dy="1"/>
<feGaussianBlur stdDeviation="5.2"/>
<feComposite in2="hardAlpha" operator="out"/>
<feColorMatrix type="matrix" values="0 0 0 0 0 0 0 0 0 0 0 0 0 0 0 0 0 0 0.2 0"/>
<feBlend mode="normal" in2="BackgroundImageFix" result="effect1_dropShadow_565_1085"/>
<feBlend mode="normal" in="SourceGraphic" in2="effect1_dropShadow_565_1085" result="shape"/>
</filter>
</defs>
</svg>
