<svg width="71" height="78" viewBox="0 0 71 78" fill="none" xmlns="http://www.w3.org/2000/svg">
<g filter="url(#filter0_d_765_1500)">
<path fill-rule="evenodd" clip-rule="evenodd" d="M40.0147 60.2344C40.2054 59.8962 40.5303 59.6604 40.9022 59.5747C51.834 57.055 60 47.0509 60 35.0934C60 21.2347 49.031 10 35.5 10C21.969 10 11 21.2347 11 35.0934C11 47.4382 19.7035 57.701 31.1685 59.7958C31.5649 59.8682 31.9154 60.1101 32.1167 60.4673L34.8532 65.3218C35.3629 66.2261 36.6372 66.2261 37.147 65.3218L40.0147 60.2344Z" fill="white"/>
</g>
<path d="M56.0267 35.093C56.0267 46.7044 46.8364 56.1172 35.4997 56.1172C24.1629 56.1172 14.9727 46.7044 14.9727 35.093C14.9727 23.4817 24.1629 14.0688 35.4997 14.0688C46.8364 14.0688 56.0267 23.4817 56.0267 35.093Z" fill="#DAC8A5"/>
<path d="M14.9994 35.0242C14.9994 23.4128 24.2442 14 35.6481 14C47.0521 14 56.2969 23.4128 56.2969 35.0242C56.2969 46.6355 47.0521 56.0483 35.6481 56.0483C24.2441 56.0483 14.9994 46.6355 14.9994 35.0242Z" fill="url(#paint0_linear_765_1500)"/>
<path fill-rule="evenodd" clip-rule="evenodd" d="M25.0297 29.2845C25.7363 25.9177 29.9473 23 35.4996 23C41.0518 23 45.2628 25.9176 45.9695 29.2862L45.9695 29.2862L45.9721 29.298C45.9742 29.3073 45.9728 29.3206 45.9627 29.3338C45.9538 29.344 45.942 29.3492 45.9297 29.3496H25.1251C25.1052 29.3484 25.0851 29.3478 25.0649 29.3478C25.0616 29.3478 25.0569 29.3471 25.0514 29.3445C25.0459 29.3418 25.0414 29.3382 25.0382 29.3342L25.0382 29.3342L25.0354 29.3308C25.0331 29.328 25.0302 29.3231 25.0285 29.3156C25.0266 29.308 25.0265 29.2994 25.0283 29.291L25.0297 29.2845ZM23.4557 30.584C23.8276 31.0424 24.3841 31.3217 24.9797 31.3461C25.0078 31.3484 25.0362 31.3496 25.0649 31.3496H45.9343L45.94 31.3496C46.5627 31.3461 47.1508 31.0666 47.5422 30.5874L47.5443 30.5847C47.9323 30.1064 48.0856 29.4798 47.9535 28.8759C46.971 24.2089 41.5641 21 35.4996 21C29.4345 21 24.027 24.2095 23.0454 28.8757C22.9174 29.471 23.0619 30.1008 23.4557 30.584ZM24.9813 38.7394C24.9741 38.7392 24.9668 38.7391 24.9595 38.7391C24.6492 38.7391 24.3716 38.8767 24.1856 39.0933L22.1282 40.0085C21.6155 40.2365 21.38 40.848 21.6022 41.3742C21.8243 41.9004 22.42 42.1422 22.9326 41.9141L23.946 41.4634V41.8261C23.946 43.1963 24.4963 44.5129 25.4765 45.4833C26.4569 46.4538 27.7884 47 29.1755 47H41.8237C43.2109 47 44.5423 46.4538 45.5227 45.4833C46.5029 44.5129 47.0533 43.1963 47.0533 41.8261V40.4154L48.8718 39.6065C49.3845 39.3785 49.62 38.767 49.3978 38.2408C49.1757 37.7146 48.58 37.4728 48.0674 37.7009L43.2818 39.8296L38.4961 37.7009C38.2395 37.5867 37.9483 37.5867 37.6917 37.7009L32.9061 39.8296L28.1205 37.7009C27.8639 37.5867 27.5726 37.5867 27.316 37.7009L24.9813 38.7394ZM25.973 40.5617V41.8261C25.973 42.668 26.3115 43.4767 26.9123 44.0715C27.513 44.6662 28.3282 45 29.1755 45H41.8237C42.671 45 43.4862 44.6662 44.0869 44.0715C44.6877 43.4767 45.0262 42.668 45.0262 41.8261V41.3171L43.684 41.9141C43.4274 42.0283 43.1361 42.0283 42.8795 41.9141L38.0939 39.7854L33.3083 41.9141C33.0517 42.0283 32.7605 42.0283 32.5039 41.9141L27.7182 39.7854L25.973 40.5617ZM22.0116 33C21.4529 33 21 33.4649 21 34.0384C21 34.6119 21.4529 35.0769 22.0116 35.0769H48.9884C49.5471 35.0769 50 34.6119 50 34.0384C50 33.4649 49.5471 33 48.9884 33H22.0116Z" fill="white"/>
<defs>
<filter id="filter0_d_765_1500" x="0.6" y="0.6" width="69.8" height="76.8" filterUnits="userSpaceOnUse" color-interpolation-filters="sRGB">
<feFlood flood-opacity="0" result="BackgroundImageFix"/>
<feColorMatrix in="SourceAlpha" type="matrix" values="0 0 0 0 0 0 0 0 0 0 0 0 0 0 0 0 0 0 127 0" result="hardAlpha"/>
<feOffset dy="1"/>
<feGaussianBlur stdDeviation="5.2"/>
<feComposite in2="hardAlpha" operator="out"/>
<feColorMatrix type="matrix" values="0 0 0 0 0 0 0 0 0 0 0 0 0 0 0 0 0 0 0.2 0"/>
<feBlend mode="normal" in2="BackgroundImageFix" result="effect1_dropShadow_765_1500"/>
<feBlend mode="normal" in="SourceGraphic" in2="effect1_dropShadow_765_1500" result="shape"/>
</filter>
<linearGradient id="paint0_linear_765_1500" x1="35.6481" y1="56.0483" x2="35.6481" y2="14" gradientUnits="userSpaceOnUse">
<stop stop-color="#F75E08"/>
<stop offset="1" stop-color="#FFA319"/>
</linearGradient>
</defs>
</svg>
