<svg width="70" height="76" viewBox="0 0 70 76" fill="none" xmlns="http://www.w3.org/2000/svg">
<g filter="url(#filter0_d_879_387)">
<path fill-rule="evenodd" clip-rule="evenodd" d="M39.4966 58.1706C39.6838 57.8463 40.0029 57.6202 40.3681 57.538C51.1047 55.1218 59.1249 45.5287 59.1249 34.0624C59.1249 20.7731 48.3518 10 35.0624 10C21.7731 10 11 20.7731 11 34.0624C11 45.9001 19.5481 55.7413 30.8083 57.75C31.1976 57.8195 31.5418 58.0514 31.7396 58.3939L34.4272 63.049C34.9278 63.9161 36.1794 63.9161 36.68 63.049L39.4966 58.1706Z" fill="white"/>
</g>
<path d="M55.2227 34.0625C55.2227 45.1968 46.1966 54.223 35.0623 54.223C23.928 54.223 14.9019 45.1968 14.9019 34.0625C14.9019 22.9282 23.928 13.9021 35.0623 13.9021C46.1966 13.9021 55.2227 22.9282 55.2227 34.0625Z" fill="url(#paint0_linear_879_387)"/>
<path fill-rule="evenodd" clip-rule="evenodd" d="M23.8947 23.8947V26.386L23.8956 26.4091C23.9244 27.3708 24.7143 28.1424 25.6837 28.1424C26.1487 28.1424 26.5686 27.9674 26.8879 27.6765C27.9559 26.7031 29.6625 26.7031 30.7305 27.6765C31.0498 27.9674 31.4696 28.1424 31.9347 28.1424C32.3998 28.1424 32.8196 27.9674 33.1389 27.6765C34.207 26.7031 35.9135 26.7031 36.9816 27.6765C37.3009 27.9674 37.7207 28.1424 38.1858 28.1424C38.6508 28.1424 39.0707 27.9674 39.39 27.6765C40.458 26.7031 42.1646 26.7031 43.2326 27.6765C43.5519 27.9674 43.9717 28.1424 44.4368 28.1424C45.4062 28.1424 46.1961 27.3708 46.2249 26.4091L46.2258 26.3851V23.8947H23.8947ZM22.6316 22C22.2828 22 22 22.2828 22 22.6316V26.4642L22.0017 26.4659C22.0611 28.4483 23.6868 30.0371 25.6837 30.0371C25.719 30.0371 25.7542 30.0366 25.7893 30.0357V34.6316H23.8945C23.5457 34.6316 23.263 34.9143 23.263 35.2632V45.3684C23.263 45.7172 23.5457 46 23.8945 46H46.6314C46.9802 46 47.263 45.7172 47.263 45.3684V35.2632C47.263 34.9143 46.9802 34.6316 46.6314 34.6316H44.7366V30.0251C46.594 29.8755 48.0623 28.3481 48.1188 26.4659L48.1205 26.4642V22.6316C48.1205 22.2828 47.8377 22 47.4889 22H22.6316ZM42.8419 34.6316V29.6749C42.5175 29.5189 42.2195 29.3167 41.9564 29.0769C41.6115 28.7626 41.011 28.7626 40.6662 29.0769C40.0116 29.6734 39.1411 30.0371 38.1858 30.0371C37.2304 30.0371 36.3599 29.6734 35.7054 29.0769C35.3605 28.7626 34.76 28.7626 34.4151 29.0769C33.7605 29.6734 32.8901 30.0371 31.9347 30.0371C30.9793 30.0371 30.1089 29.6734 29.4543 29.0769C29.1094 28.7626 28.5089 28.7626 28.1641 29.0769C28.0148 29.213 27.8542 29.3369 27.684 29.4472V34.6316H42.8419ZM25.1577 44.1053V36.5263H45.3682V44.1053H25.1577Z" fill="white"/>
<defs>
<filter id="filter0_d_879_387" x="0.6" y="0.6" width="68.925" height="74.4992" filterUnits="userSpaceOnUse" color-interpolation-filters="sRGB">
<feFlood flood-opacity="0" result="BackgroundImageFix"/>
<feColorMatrix in="SourceAlpha" type="matrix" values="0 0 0 0 0 0 0 0 0 0 0 0 0 0 0 0 0 0 127 0" result="hardAlpha"/>
<feOffset dy="1"/>
<feGaussianBlur stdDeviation="5.2"/>
<feComposite in2="hardAlpha" operator="out"/>
<feColorMatrix type="matrix" values="0 0 0 0 0 0 0 0 0 0 0 0 0 0 0 0 0 0 0.2 0"/>
<feBlend mode="normal" in2="BackgroundImageFix" result="effect1_dropShadow_879_387"/>
<feBlend mode="normal" in="SourceGraphic" in2="effect1_dropShadow_879_387" result="shape"/>
</filter>
<linearGradient id="paint0_linear_879_387" x1="35.0623" y1="13.9021" x2="35.0623" y2="54.223" gradientUnits="userSpaceOnUse">
<stop stop-color="#BF7BF4"/>
<stop offset="1" stop-color="#73058E"/>
</linearGradient>
</defs>
</svg>
