<svg width="70" height="76" viewBox="0 0 70 76" fill="none" xmlns="http://www.w3.org/2000/svg">
<g filter="url(#filter0_d_565_1144)">
<path fill-rule="evenodd" clip-rule="evenodd" d="M39.8247 58.4713C40.0119 58.1471 40.331 57.921 40.6963 57.8388C51.4329 55.4226 59.453 45.8295 59.453 34.3632C59.453 21.0739 48.6799 10.3008 35.3906 10.3008C22.1012 10.3008 11.3281 21.0739 11.3281 34.3632C11.3281 46.2009 19.8762 56.0421 31.1365 58.0508C31.5258 58.1202 31.8699 58.3522 32.0677 58.6947L34.7553 63.3498C35.2559 64.2169 36.5075 64.2169 37.0081 63.3498L39.8247 58.4713Z" fill="white"/>
</g>
<path d="M55.5513 34.3633C55.5513 45.4976 46.5252 54.5237 35.3909 54.5237C24.2566 54.5237 15.2305 45.4976 15.2305 34.3633C15.2305 23.229 24.2566 14.2029 35.3909 14.2029C46.5252 14.2029 55.5513 23.229 55.5513 34.3633Z" fill="url(#paint0_linear_565_1144)"/>
<path d="M42.219 39.6826V47.0195C42.2197 48.3528 40.0456 48.3528 40.0456 47.0195V39.7327H37.1246L40.2461 29.7842H39.7613L37.9459 35.3969C37.5141 36.6208 35.6841 36.1182 36.1028 34.8075L38.1188 28.71C38.3346 28.0147 39.2919 26.7817 40.949 26.7817H44.1212C45.7638 26.7817 46.7249 28.0246 46.973 28.71L48.9897 34.8019C49.393 36.1119 47.5776 36.6546 47.1459 35.3778L45.3312 29.7849H44.8065L47.9525 39.7341H45.0285V47.0301C45.0285 48.3535 42.8636 48.3472 42.8636 47.0301V39.6833H42.219V39.6826ZM42.5601 26.2431C43.8331 26.2431 44.8657 25.2945 44.8657 24.125C44.8657 22.9555 43.8331 22.0068 42.5601 22.0068C41.2871 22.0068 40.2545 22.9555 40.2545 24.125C40.2545 25.2945 41.2871 26.2431 42.5601 26.2431Z" fill="white"/>
<path d="M25.8731 26.7974C24.2995 26.7974 23.0342 28.0435 23.0342 29.5974V36.2209C23.0342 37.5085 24.9749 37.5085 24.9749 36.2209V30.1645H25.4342V46.7481C25.4342 48.4696 28.0192 48.4189 28.0192 46.7481V37.1218H28.4647V46.7481C28.4647 48.4189 31.0635 48.4696 31.0635 46.7481V30.1645H31.5119V36.2209C31.5119 37.5184 33.4432 37.5184 33.4396 36.2209V29.6369C33.4396 28.2041 32.294 26.8003 30.5658 26.8003L25.8724 26.7974H25.8731ZM28.2507 26.3213C29.4775 26.3213 30.4722 25.3548 30.4722 24.1637C30.4722 22.9726 29.4775 22.0068 28.2507 22.0068C27.0238 22.0068 26.0291 22.9733 26.0291 24.1637C26.0291 25.3541 27.0238 26.3213 28.2507 26.3213Z" fill="white"/>
<defs>
<filter id="filter0_d_565_1144" x="0.928125" y="0.900782" width="68.925" height="74.4992" filterUnits="userSpaceOnUse" color-interpolation-filters="sRGB">
<feFlood flood-opacity="0" result="BackgroundImageFix"/>
<feColorMatrix in="SourceAlpha" type="matrix" values="0 0 0 0 0 0 0 0 0 0 0 0 0 0 0 0 0 0 127 0" result="hardAlpha"/>
<feOffset dy="1"/>
<feGaussianBlur stdDeviation="5.2"/>
<feComposite in2="hardAlpha" operator="out"/>
<feColorMatrix type="matrix" values="0 0 0 0 0 0 0 0 0 0 0 0 0 0 0 0 0 0 0.2 0"/>
<feBlend mode="normal" in2="BackgroundImageFix" result="effect1_dropShadow_565_1144"/>
<feBlend mode="normal" in="SourceGraphic" in2="effect1_dropShadow_565_1144" result="shape"/>
</filter>
<linearGradient id="paint0_linear_565_1144" x1="35.3909" y1="14.2029" x2="35.3909" y2="54.5237" gradientUnits="userSpaceOnUse">
<stop stop-color="#313131"/>
<stop offset="1"/>
</linearGradient>
</defs>
</svg>
