<svg width="24" height="24" viewBox="0 0 24 24" fill="none" xmlns="http://www.w3.org/2000/svg">
<circle cx="12" cy="12" r="11.25" stroke="#45464A" stroke-width="1.5"/>
<path d="M17.82 8.65L13.62 5.15C13.5 5.05 13.38 5 13.2 5H7.2C6.54 5 6 5.45 6 6V18C6 18.55 6.54 19 7.2 19H16.8C17.46 19 18 18.55 18 18V9C18 8.85 17.94 8.75 17.82 8.65ZM13.2 6.2L16.56 9H13.2V6.2ZM16.8 18H7.2V6H12V9C12 9.55 12.54 10 13.2 10H16.8V18Z" fill="#45464A"/>
<path d="M8.39941 15H15.5994V16H8.39941V15ZM8.39941 12H15.5994V13H8.39941V12Z" fill="#45464A"/>
</svg>
