<svg width="70" height="76" viewBox="0 0 70 76" fill="none" xmlns="http://www.w3.org/2000/svg">
<g filter="url(#filter0_d_565_1144)">
<path fill-rule="evenodd" clip-rule="evenodd" d="M39.8247 58.4712C40.0119 58.147 40.331 57.9209 40.6963 57.8387C51.4329 55.4225 59.453 45.8294 59.453 34.3631C59.453 21.0738 48.6799 10.3007 35.3906 10.3007C22.1012 10.3007 11.3281 21.0738 11.3281 34.3631C11.3281 46.2008 19.8762 56.0419 31.1365 58.0507C31.5258 58.1201 31.8699 58.3521 32.0677 58.6946L34.7553 63.3497C35.2559 64.2168 36.5075 64.2168 37.0081 63.3497L39.8247 58.4712Z" fill="white"/>
</g>
<path d="M55.5513 34.3631C55.5513 45.4974 46.5252 54.5236 35.3909 54.5236C24.2566 54.5236 15.2305 45.4974 15.2305 34.3631C15.2305 23.2288 24.2566 14.2027 35.3909 14.2027C46.5252 14.2027 55.5513 23.2288 55.5513 34.3631Z" fill="url(#paint0_linear_565_1144)"/>
<path d="M42.219 39.6825V47.0194C42.2197 48.3527 40.0456 48.3527 40.0456 47.0194V39.7326H37.1246L40.2461 29.7841H39.7613L37.9459 35.3967C37.5141 36.6206 35.6841 36.1181 36.1028 34.8074L38.1188 28.7098C38.3346 28.0146 39.2919 26.7816 40.949 26.7816H44.1212C45.7638 26.7816 46.7249 28.0245 46.973 28.7098L48.9897 34.8017C49.393 36.1117 47.5776 36.6545 47.1459 35.3777L45.3312 29.7848H44.8065L47.9525 39.734H45.0285V47.03C45.0285 48.3534 42.8636 48.347 42.8636 47.03V39.6832H42.219V39.6825ZM42.5601 26.243C43.8331 26.243 44.8657 25.2944 44.8657 24.1249C44.8657 22.9553 43.8331 22.0067 42.5601 22.0067C41.2871 22.0067 40.2545 22.9553 40.2545 24.1249C40.2545 25.2944 41.2871 26.243 42.5601 26.243Z" fill="white"/>
<path d="M25.8731 26.7973C24.2995 26.7973 23.0342 28.0434 23.0342 29.5973V36.2207C23.0342 37.5084 24.9749 37.5084 24.9749 36.2207V30.1643H25.4342V46.748C25.4342 48.4695 28.0192 48.4188 28.0192 46.748V37.1217H28.4647V46.748C28.4647 48.4188 31.0635 48.4695 31.0635 46.748V30.1643H31.5119V36.2207C31.5119 37.5182 33.4432 37.5182 33.4396 36.2207V29.6367C33.4396 28.204 32.294 26.8001 30.5658 26.8001L25.8724 26.7973H25.8731ZM28.2507 26.3211C29.4775 26.3211 30.4722 25.3547 30.4722 24.1636C30.4722 22.9724 29.4775 22.0067 28.2507 22.0067C27.0238 22.0067 26.0291 22.9731 26.0291 24.1636C26.0291 25.354 27.0238 26.3211 28.2507 26.3211Z" fill="white"/>
<defs>
<filter id="filter0_d_565_1144" x="0.928125" y="0.90066" width="68.925" height="74.4993" filterUnits="userSpaceOnUse" color-interpolation-filters="sRGB">
<feFlood flood-opacity="0" result="BackgroundImageFix"/>
<feColorMatrix in="SourceAlpha" type="matrix" values="0 0 0 0 0 0 0 0 0 0 0 0 0 0 0 0 0 0 127 0" result="hardAlpha"/>
<feOffset dy="1"/>
<feGaussianBlur stdDeviation="5.2"/>
<feComposite in2="hardAlpha" operator="out"/>
<feColorMatrix type="matrix" values="0 0 0 0 0 0 0 0 0 0 0 0 0 0 0 0 0 0 0.2 0"/>
<feBlend mode="normal" in2="BackgroundImageFix" result="effect1_dropShadow_565_1144"/>
<feBlend mode="normal" in="SourceGraphic" in2="effect1_dropShadow_565_1144" result="shape"/>
</filter>
<linearGradient id="paint0_linear_565_1144" x1="35.3909" y1="14.2027" x2="35.3909" y2="54.5236" gradientUnits="userSpaceOnUse">
<stop stop-color="#313131"/>
<stop offset="1"/>
</linearGradient>
</defs>
</svg>
