<svg width="59" height="63" viewBox="0 0 59 63" fill="none" xmlns="http://www.w3.org/2000/svg">
<g filter="url(#filter0_d_565_1137)">
<path fill-rule="evenodd" clip-rule="evenodd" d="M32.9091 47.0351C33.053 46.7858 33.2984 46.612 33.5792 46.5488C41.8338 44.6912 48 37.3157 48 28.5C48 18.2827 39.7173 10 29.5 10C19.2827 10 11 18.2827 11 28.5C11 37.6012 17.572 45.1674 26.2293 46.7118C26.5286 46.7652 26.7932 46.9435 26.9452 47.2068L29.0116 50.7858C29.3965 51.4525 30.3587 51.4525 30.7436 50.7858L32.9091 47.0351Z" fill="white"/>
</g>
<path d="M45 28.5C45 37.0604 38.0604 44 29.5 44C20.9396 44 14 37.0604 14 28.5C14 19.9396 20.9396 13 29.5 13C38.0604 13 45 19.9396 45 28.5Z" fill="#DEDEDE"/>
<path d="M34.7498 32.5897V38.2306C34.7504 39.2557 33.0788 39.2557 33.0788 38.2306V32.6282H30.8331L33.233 24.9795H32.8603L31.4645 29.2947C31.1326 30.2357 29.7256 29.8493 30.0475 28.8416L31.5974 24.1536C31.7634 23.6191 32.4994 22.6711 33.7734 22.6711H36.2123C37.4752 22.6711 38.2141 23.6267 38.4049 24.1536L39.9554 28.8372C40.2655 29.8444 38.8697 30.2617 38.5378 29.28L37.1426 24.9801H36.7392L39.158 32.6293H36.9099V38.2387C36.9099 39.2562 35.2454 39.2513 35.2454 38.2387V32.5902H34.7498V32.5897ZM35.0121 22.257C35.9908 22.257 36.7847 21.5277 36.7847 20.6285C36.7847 19.7293 35.9908 19 35.0121 19C34.0333 19 33.2395 19.7293 33.2395 20.6285C33.2395 21.5277 34.0333 22.257 35.0121 22.257Z" fill="#7B7B7B"/>
<path d="M22.1827 22.6832C20.9728 22.6832 20 23.6412 20 24.8359V29.9282C20 30.9182 21.4921 30.9182 21.4921 29.9282V25.2718H21.8452V38.0219C21.8452 39.3455 23.8327 39.3065 23.8327 38.0219V30.6209H24.1751V38.0219C24.1751 39.3065 26.1732 39.3455 26.1732 38.0219V25.2718H26.5179V29.9282C26.5179 30.9258 28.0028 30.9258 28 29.9282V24.8662C28 23.7647 27.1192 22.6853 25.7905 22.6853L22.1821 22.6832H22.1827ZM24.0106 22.3171C24.9538 22.3171 25.7186 21.5741 25.7186 20.6583C25.7186 19.7425 24.9538 19 24.0106 19C23.0674 19 22.3026 19.743 22.3026 20.6583C22.3026 21.5735 23.0674 22.3171 24.0106 22.3171Z" fill="#7B7B7B"/>
<defs>
<filter id="filter0_d_565_1137" x="0.6" y="0.6" width="57.8" height="62.0858" filterUnits="userSpaceOnUse" color-interpolation-filters="sRGB">
<feFlood flood-opacity="0" result="BackgroundImageFix"/>
<feColorMatrix in="SourceAlpha" type="matrix" values="0 0 0 0 0 0 0 0 0 0 0 0 0 0 0 0 0 0 127 0" result="hardAlpha"/>
<feOffset dy="1"/>
<feGaussianBlur stdDeviation="5.2"/>
<feComposite in2="hardAlpha" operator="out"/>
<feColorMatrix type="matrix" values="0 0 0 0 0 0 0 0 0 0 0 0 0 0 0 0 0 0 0.2 0"/>
<feBlend mode="normal" in2="BackgroundImageFix" result="effect1_dropShadow_565_1137"/>
<feBlend mode="normal" in="SourceGraphic" in2="effect1_dropShadow_565_1137" result="shape"/>
</filter>
</defs>
</svg>
