<svg width="70" height="76" viewBox="0 0 70 76" fill="none" xmlns="http://www.w3.org/2000/svg">
<g filter="url(#filter0_d_765_1498)">
<path fill-rule="evenodd" clip-rule="evenodd" d="M39.4966 58.1706C39.6838 57.8463 40.0029 57.6202 40.3681 57.538C51.1047 55.1218 59.1249 45.5287 59.1249 34.0624C59.1249 20.7731 48.3518 10 35.0624 10C21.7731 10 11 20.7731 11 34.0624C11 45.9001 19.5481 55.7413 30.8083 57.75C31.1976 57.8195 31.5418 58.0514 31.7396 58.3939L34.4272 63.049C34.9278 63.9161 36.1794 63.9161 36.68 63.049L39.4966 58.1706Z" fill="white"/>
</g>
<path d="M55.2232 34.0625C55.2232 45.1968 46.1971 54.223 35.0628 54.223C23.9285 54.223 14.9023 45.1968 14.9023 34.0625C14.9023 22.9282 23.9285 13.9021 35.0628 13.9021C46.1971 13.9021 55.2232 22.9282 55.2232 34.0625Z" fill="url(#paint0_linear_765_1498)"/>
<path d="M35 44V50" stroke="white" stroke-width="1.5" stroke-linecap="round"/>
<path fill-rule="evenodd" clip-rule="evenodd" d="M39.0291 21.9529C36.5145 20.4953 33.424 20.4964 30.9239 21.952L30.9197 21.9544L30.9197 21.9544C28.4062 23.4002 26.86 26.081 26.86 28.9726C26.86 31.2404 27.786 33.7549 29.308 35.6981C30.8326 37.6447 32.8487 38.8925 34.9695 38.8925C37.0904 38.8925 39.1064 37.6447 40.6311 35.6981C42.153 33.7549 43.0791 31.2404 43.0791 28.9726C43.0791 28.9236 43.0829 28.8754 43.0902 28.8284C43.0397 25.9921 41.5034 23.3762 39.0318 21.9544L39.0291 21.9529ZM44.9378 29.1322C44.8962 31.8151 43.8099 34.6559 42.0954 36.845C40.3495 39.074 37.8458 40.7525 34.9695 40.7525C32.0932 40.7525 29.5895 39.074 27.8437 36.845C26.0951 34.6125 25 31.702 25 28.9726C25 25.4171 26.9001 22.1218 29.9901 20.3434C33.0692 18.5517 36.8713 18.5529 39.9605 20.3429C43.051 22.1213 44.9514 25.4168 44.9514 28.9726C44.9514 29.027 44.9468 29.0804 44.9378 29.1322Z" fill="white"/>
<path fill-rule="evenodd" clip-rule="evenodd" d="M34.9576 23.4752C35.0421 22.9686 35.5212 22.6264 36.0279 22.7108C37.3324 22.9282 38.5278 23.5387 39.4615 24.4859C40.3893 25.4147 41.013 26.6183 41.2312 27.9127C41.3166 28.4192 40.9752 28.899 40.4687 28.9844C39.9622 29.0697 39.4825 28.7283 39.3971 28.2219C39.2435 27.3103 38.8018 26.4565 38.1438 25.7985L38.1387 25.7934L38.1387 25.7934C37.4855 25.1301 36.6483 24.6998 35.7221 24.5455C35.2155 24.461 34.8732 23.9819 34.9576 23.4752ZM34.0866 38.8469C34.5637 39.0371 34.7963 39.5781 34.6061 40.0552L33.6262 42.5132H36.301L35.3211 40.0552C35.1309 39.5781 35.3635 39.0371 35.8406 38.8469C36.3177 38.6567 36.8586 38.8893 37.0489 39.3664L38.5368 43.0988C38.6511 43.3853 38.6158 43.7097 38.4428 43.965C38.2697 44.2203 37.9814 44.3732 37.673 44.3732H32.2542C31.9458 44.3732 31.6575 44.2203 31.4844 43.965C31.3114 43.7097 31.2761 43.3853 31.3903 43.0988L32.8783 39.3664C33.0685 38.8893 33.6095 38.6567 34.0866 38.8469Z" fill="white"/>
<defs>
<filter id="filter0_d_765_1498" x="0.6" y="0.6" width="68.925" height="74.4992" filterUnits="userSpaceOnUse" color-interpolation-filters="sRGB">
<feFlood flood-opacity="0" result="BackgroundImageFix"/>
<feColorMatrix in="SourceAlpha" type="matrix" values="0 0 0 0 0 0 0 0 0 0 0 0 0 0 0 0 0 0 127 0" result="hardAlpha"/>
<feOffset dy="1"/>
<feGaussianBlur stdDeviation="5.2"/>
<feComposite in2="hardAlpha" operator="out"/>
<feColorMatrix type="matrix" values="0 0 0 0 0 0 0 0 0 0 0 0 0 0 0 0 0 0 0.2 0"/>
<feBlend mode="normal" in2="BackgroundImageFix" result="effect1_dropShadow_765_1498"/>
<feBlend mode="normal" in="SourceGraphic" in2="effect1_dropShadow_765_1498" result="shape"/>
</filter>
<linearGradient id="paint0_linear_765_1498" x1="35.0628" y1="13.9021" x2="35.0628" y2="54.223" gradientUnits="userSpaceOnUse">
<stop stop-color="#7BF4EF"/>
<stop offset="1" stop-color="#00948E"/>
</linearGradient>
</defs>
</svg>
