<svg width="59" height="63" viewBox="0 0 59 63" fill="none" xmlns="http://www.w3.org/2000/svg">
<g filter="url(#filter0_d_879_385)">
<g filter="url(#filter1_d_879_385)">
<path fill-rule="evenodd" clip-rule="evenodd" d="M32.9091 47.0351C33.053 46.7858 33.2984 46.612 33.5792 46.5488C41.8338 44.6912 48 37.3157 48 28.5C48 18.2827 39.7173 10 29.5 10C19.2827 10 11 18.2827 11 28.5C11 37.6012 17.572 45.1674 26.2293 46.7118C26.5286 46.7652 26.7932 46.9435 26.9452 47.2068L29.0116 50.7858C29.3965 51.4525 30.3587 51.4525 30.7436 50.7858L32.9091 47.0351Z" fill="white"/>
</g>
<path d="M45 28.5C45 37.0604 38.0604 44 29.5 44C20.9396 44 14 37.0604 14 28.5C14 19.9396 20.9396 13 29.5 13C38.0604 13 45 19.9396 45 28.5Z" fill="#E0CCE0"/>
<path fill-rule="evenodd" clip-rule="evenodd" d="M23.5 23.5V32.5H35.5V23.5H23.5ZM22.5 22C22.2239 22 22 22.2239 22 22.5V33.5C22 33.7761 22.2239 34 22.5 34H36.5C36.7761 34 37 33.7761 37 33.5V22.5C37 22.2239 36.7761 22 36.5 22H22.5Z" fill="#C196C1"/>
<path fill-rule="evenodd" clip-rule="evenodd" d="M19 19.5C19 19.2239 19.2239 19 19.5 19H39.1789C39.455 19 39.6789 19.2239 39.6789 19.5L39.6782 22.5349C39.6312 24.1043 38.3434 25.3627 36.7626 25.3627C36.0063 25.3627 35.3172 25.0748 34.799 24.6026C34.5259 24.3538 34.0505 24.3538 33.7775 24.6026C33.2593 25.0748 32.5702 25.3627 31.8138 25.3627C31.0575 25.3627 30.3684 25.0748 29.8502 24.6026C29.5771 24.3538 29.1017 24.3538 28.8287 24.6026C28.3105 25.0748 27.6214 25.3627 26.865 25.3627C26.1087 25.3627 25.4196 25.0748 24.9014 24.6026C24.6284 24.3538 24.1529 24.3538 23.8799 24.6026C23.3617 25.0748 22.6726 25.3627 21.9163 25.3627C20.3354 25.3627 19.0477 24.1043 19.0007 22.5349L19 22.4465V19.5Z" fill="#E0CCE0"/>
<path fill-rule="evenodd" clip-rule="evenodd" d="M20.5002 20.5V22.4723C20.5004 22.4783 20.5006 22.4844 20.5008 22.4905C20.5236 23.2519 21.149 23.8627 21.9164 23.8627C22.2846 23.8627 22.6169 23.7242 22.8697 23.4939C23.7153 22.7233 25.0663 22.7233 25.9118 23.4939C26.1646 23.7242 26.497 23.8627 26.8651 23.8627C27.2333 23.8627 27.5657 23.7242 27.8185 23.4939C28.664 22.7233 30.015 22.7233 30.8606 23.4939C31.1133 23.7242 31.4457 23.8627 31.8139 23.8627C32.1821 23.8627 32.5144 23.7242 32.7672 23.4939C33.6128 22.7233 34.9638 22.7233 35.8093 23.4939C36.0621 23.7242 36.3945 23.8627 36.7626 23.8627C37.5301 23.8627 38.1554 23.2519 38.1782 22.4906C38.1784 22.4842 38.1786 22.4779 38.1789 22.4716V20.5H20.5002ZM19.5002 19C19.224 19 19.0002 19.2239 19.0002 19.5V22.5342L19.0015 22.5355C19.0486 24.1049 20.3356 25.3627 21.9164 25.3627C22.6727 25.3627 23.3618 25.0748 23.88 24.6026C24.1531 24.3538 24.6285 24.3538 24.9015 24.6026C25.4197 25.0748 26.1088 25.3627 26.8651 25.3627C27.6215 25.3627 28.3106 25.0748 28.8288 24.6026C29.1018 24.3538 29.5772 24.3538 29.8502 24.6026C30.3685 25.0748 31.0575 25.3627 31.8139 25.3627C32.5702 25.3627 33.2593 25.0748 33.7775 24.6026C34.0506 24.3538 34.526 24.3538 34.799 24.6026C35.3172 25.0748 36.0063 25.3627 36.7626 25.3627C38.3434 25.3627 39.6305 24.1049 39.6775 22.5355L39.6789 22.5342V19.5C39.6789 19.2239 39.455 19 39.1789 19H19.5002Z" fill="#C196C1"/>
<path d="M20 29.5C20 29.2239 20.2239 29 20.5 29H38.5C38.7761 29 39 29.2239 39 29.5V37.5C39 37.7761 38.7761 38 38.5 38H20.5C20.2239 38 20 37.7761 20 37.5V29.5Z" fill="#E0CCE0"/>
<path fill-rule="evenodd" clip-rule="evenodd" d="M21.5 30.5V36.5H37.5V30.5H21.5ZM20.5 29C20.2239 29 20 29.2239 20 29.5V37.5C20 37.7761 20.2239 38 20.5 38H38.5C38.7761 38 39 37.7761 39 37.5V29.5C39 29.2239 38.7761 29 38.5 29H20.5Z" fill="#C196C1"/>
</g>
<defs>
<filter id="filter0_d_879_385" x="7" y="10" width="45" height="49.2859" filterUnits="userSpaceOnUse" color-interpolation-filters="sRGB">
<feFlood flood-opacity="0" result="BackgroundImageFix"/>
<feColorMatrix in="SourceAlpha" type="matrix" values="0 0 0 0 0 0 0 0 0 0 0 0 0 0 0 0 0 0 127 0" result="hardAlpha"/>
<feOffset dy="4"/>
<feGaussianBlur stdDeviation="2"/>
<feComposite in2="hardAlpha" operator="out"/>
<feColorMatrix type="matrix" values="0 0 0 0 0 0 0 0 0 0 0 0 0 0 0 0 0 0 0.25 0"/>
<feBlend mode="normal" in2="BackgroundImageFix" result="effect1_dropShadow_879_385"/>
<feBlend mode="normal" in="SourceGraphic" in2="effect1_dropShadow_879_385" result="shape"/>
</filter>
<filter id="filter1_d_879_385" x="0.6" y="0.6" width="57.8" height="62.0859" filterUnits="userSpaceOnUse" color-interpolation-filters="sRGB">
<feFlood flood-opacity="0" result="BackgroundImageFix"/>
<feColorMatrix in="SourceAlpha" type="matrix" values="0 0 0 0 0 0 0 0 0 0 0 0 0 0 0 0 0 0 127 0" result="hardAlpha"/>
<feOffset dy="1"/>
<feGaussianBlur stdDeviation="5.2"/>
<feComposite in2="hardAlpha" operator="out"/>
<feColorMatrix type="matrix" values="0 0 0 0 0 0 0 0 0 0 0 0 0 0 0 0 0 0 0.2 0"/>
<feBlend mode="normal" in2="BackgroundImageFix" result="effect1_dropShadow_879_385"/>
<feBlend mode="normal" in="SourceGraphic" in2="effect1_dropShadow_879_385" result="shape"/>
</filter>
</defs>
</svg>
