<svg width="70" height="76" viewBox="0 0 70 76" fill="none" xmlns="http://www.w3.org/2000/svg">
<g filter="url(#filter0_d_565_1124)">
<path fill-rule="evenodd" clip-rule="evenodd" d="M39.4966 58.1706C39.6838 57.8463 40.0029 57.6202 40.3681 57.538C51.1047 55.1218 59.1249 45.5287 59.1249 34.0624C59.1249 20.7731 48.3518 10 35.0624 10C21.7731 10 11 20.7731 11 34.0624C11 45.9001 19.5481 55.7413 30.8083 57.75C31.1976 57.8195 31.5418 58.0514 31.7396 58.3939L34.4272 63.049C34.9278 63.9161 36.1794 63.9161 36.68 63.049L39.4966 58.1706Z" fill="white"/>
</g>
<path d="M55.2232 34.0625C55.2232 45.1968 46.1971 54.2229 35.0628 54.2229C23.9285 54.2229 14.9023 45.1968 14.9023 34.0625C14.9023 22.9282 23.9285 13.902 35.0628 13.902C46.1971 13.902 55.2232 22.9282 55.2232 34.0625Z" fill="url(#paint0_linear_565_1124)"/>
<path fill-rule="evenodd" clip-rule="evenodd" d="M27.2586 27.5591V39.2652H42.8667V27.5591H27.2586ZM25.958 25.6081C25.5988 25.6081 25.3076 25.8993 25.3076 26.2584V40.5658C25.3076 40.925 25.5988 41.2162 25.958 41.2162H44.1674C44.5265 41.2162 44.8177 40.925 44.8177 40.5658V26.2584C44.8177 25.8993 44.5265 25.6081 44.1674 25.6081H25.958Z" fill="white"/>
<path fill-rule="evenodd" clip-rule="evenodd" d="M21.4053 22.3564C21.4053 21.9972 21.6964 21.7061 22.0556 21.7061H47.6514C48.0106 21.7061 48.3018 21.9972 48.3018 22.3564V26.3029C48.3018 26.3033 48.3014 26.3037 48.3009 26.3037C48.3004 26.3037 48.3 26.3041 48.3 26.3046C48.2388 28.3459 46.5648 29.9819 44.5086 29.9819C43.5249 29.9819 42.6286 29.6074 41.9545 28.9932C41.5994 28.6695 40.9811 28.6695 40.626 28.9932C39.9519 29.6074 39.0556 29.9819 38.0719 29.9819C37.0881 29.9819 36.1918 29.6074 35.5178 28.9932C35.1627 28.6695 34.5443 28.6695 34.1892 28.9932C33.5152 29.6074 32.6189 29.9819 31.6351 29.9819C30.6514 29.9819 29.7551 29.6074 29.081 28.9932C28.7259 28.6695 28.1076 28.6695 27.7525 28.9932C27.0784 29.6074 26.1821 29.9819 25.1984 29.9819C23.1422 29.9819 21.4682 28.3459 21.407 26.3046C21.407 26.3041 21.4066 26.3037 21.4061 26.3037C21.4057 26.3037 21.4053 26.3034 21.4053 26.3029V26.1888V22.3564Z" fill="#60CECA"/>
<path fill-rule="evenodd" clip-rule="evenodd" d="M23.3565 23.6571V26.2223C23.3568 26.2302 23.3571 26.2382 23.3573 26.2461C23.387 27.2363 24.2004 28.0309 25.1985 28.0309C25.6774 28.0309 26.1097 27.8507 26.4385 27.5511C27.5383 26.5489 29.2955 26.5489 30.3953 27.5511C30.7241 27.8507 31.1564 28.0309 31.6353 28.0309C32.1141 28.0309 32.5464 27.8507 32.8752 27.5511C33.975 26.5489 35.7322 26.5489 36.832 27.5511C37.1608 27.8507 37.5931 28.0309 38.072 28.0309C38.5508 28.0309 38.9831 27.8507 39.3119 27.5511C40.4117 26.5489 42.1689 26.5489 43.2687 27.5511C43.5975 27.8507 44.0298 28.0309 44.5087 28.0309C45.5068 28.0309 46.3202 27.2363 46.3499 26.2461C46.3501 26.2379 46.3504 26.2297 46.3508 26.2214V23.6571H23.3565ZM22.0558 21.7061C21.6966 21.7061 21.4055 21.9972 21.4055 22.3564V26.3029L21.4072 26.3046C21.4684 28.3459 23.1424 29.9819 25.1985 29.9819C26.1823 29.9819 27.0786 29.6074 27.7526 28.9932C28.1077 28.6695 28.7261 28.6695 29.0812 28.9932C29.7552 29.6074 30.6515 29.9819 31.6353 29.9819C32.619 29.9819 33.5153 29.6074 34.1893 28.9932C34.5444 28.6695 35.1628 28.6695 35.5179 28.9932C36.1919 29.6074 37.0882 29.9819 38.072 29.9819C39.0557 29.9819 39.952 29.6074 40.626 28.9932C40.9811 28.6695 41.5995 28.6695 41.9546 28.9932C42.6286 29.6074 43.5249 29.9819 44.5087 29.9819C46.5648 29.9819 48.2388 28.3459 48.3 26.3046L48.3018 26.3029V22.3564C48.3018 21.9972 48.0106 21.7061 47.6514 21.7061H22.0558Z" fill="white"/>
<path d="M22.7061 35.3631C22.7061 35.0039 22.9972 34.7128 23.3564 34.7128H46.7685C47.1277 34.7128 47.4188 35.0039 47.4188 35.3631V45.7685C47.4188 46.1277 47.1277 46.4188 46.7685 46.4188H23.3564C22.9972 46.4188 22.7061 46.1277 22.7061 45.7685V35.3631Z" fill="#28B3AE"/>
<path fill-rule="evenodd" clip-rule="evenodd" d="M24.6571 36.6638V44.4678H45.4678V36.6638H24.6571ZM23.3564 34.7128C22.9972 34.7128 22.7061 35.0039 22.7061 35.3631V45.7685C22.7061 46.1277 22.9972 46.4188 23.3564 46.4188H46.7685C47.1277 46.4188 47.4188 46.1277 47.4188 45.7685V35.3631C47.4188 35.0039 47.1277 34.7128 46.7685 34.7128H23.3564Z" fill="white"/>
<defs>
<filter id="filter0_d_565_1124" x="0.6" y="0.6" width="68.925" height="74.4993" filterUnits="userSpaceOnUse" color-interpolation-filters="sRGB">
<feFlood flood-opacity="0" result="BackgroundImageFix"/>
<feColorMatrix in="SourceAlpha" type="matrix" values="0 0 0 0 0 0 0 0 0 0 0 0 0 0 0 0 0 0 127 0" result="hardAlpha"/>
<feOffset dy="1"/>
<feGaussianBlur stdDeviation="5.2"/>
<feComposite in2="hardAlpha" operator="out"/>
<feColorMatrix type="matrix" values="0 0 0 0 0 0 0 0 0 0 0 0 0 0 0 0 0 0 0.2 0"/>
<feBlend mode="normal" in2="BackgroundImageFix" result="effect1_dropShadow_565_1124"/>
<feBlend mode="normal" in="SourceGraphic" in2="effect1_dropShadow_565_1124" result="shape"/>
</filter>
<linearGradient id="paint0_linear_565_1124" x1="35.0628" y1="13.902" x2="35.0628" y2="54.2229" gradientUnits="userSpaceOnUse">
<stop stop-color="#7BF4EF"/>
<stop offset="1" stop-color="#00948E"/>
</linearGradient>
</defs>
</svg>
