<svg width="59" height="63" viewBox="0 0 59 63" fill="none" xmlns="http://www.w3.org/2000/svg">
<g filter="url(#filter0_d_765_1518)">
<path fill-rule="evenodd" clip-rule="evenodd" d="M32.9091 47.0351C33.053 46.7858 33.2984 46.612 33.5792 46.5488C41.8338 44.6912 48 37.3157 48 28.5C48 18.2827 39.7173 10 29.5 10C19.2827 10 11 18.2827 11 28.5C11 37.6012 17.572 45.1674 26.2293 46.7118C26.5286 46.7652 26.7932 46.9435 26.9452 47.2068L29.0116 50.7858C29.3965 51.4525 30.3587 51.4525 30.7436 50.7858L32.9091 47.0351Z" fill="white"/>
</g>
<path d="M45 28.5C45 37.0604 38.0604 44 29.5 44C20.9396 44 14 37.0604 14 28.5C14 19.9396 20.9396 13 29.5 13C38.0604 13 45 19.9396 45 28.5Z" fill="#CCE0DE"/>
<path d="M29.4531 37.1313V42.4141" stroke="#819E9C" stroke-width="1.5" stroke-linecap="round"/>
<path fill-rule="evenodd" clip-rule="evenodd" d="M32.9538 18.5161C30.8112 17.2741 28.1778 17.275 26.0476 18.5153L26.044 18.5174L26.044 18.5174C23.9023 19.7493 22.5848 22.0335 22.5848 24.4974C22.5848 26.4296 23.3739 28.5722 24.6707 30.2279C25.9698 31.8866 27.6876 32.9498 29.4947 32.9498C31.3018 32.9498 33.0196 31.8866 34.3187 30.2279C35.6156 28.5722 36.4046 26.4296 36.4046 24.4974C36.4046 24.4556 36.4078 24.4145 36.4141 24.3745C36.3711 21.9577 35.0621 19.7288 32.956 18.5174L32.9538 18.5161ZM37.9884 24.6333C37.9529 26.9193 37.0273 29.3399 35.5664 31.2051C34.0789 33.1044 31.9455 34.5347 29.4947 34.5347C27.0439 34.5347 24.9106 33.1044 23.423 31.2051C21.9331 29.3029 21 26.823 21 24.4974C21 21.4678 22.619 18.66 25.2519 17.1446C27.8755 15.618 31.1152 15.619 33.7474 17.1443C36.3807 18.6595 38 21.4676 38 24.4974C38 24.5437 37.996 24.5892 37.9884 24.6333Z" fill="#819E9C"/>
<path fill-rule="evenodd" clip-rule="evenodd" d="M29.4846 19.8134C29.5566 19.3817 29.9648 19.0901 30.3965 19.162C31.5081 19.3473 32.5267 19.8675 33.3222 20.6745C34.1127 21.4659 34.6442 22.4915 34.8301 23.5944C34.9028 24.026 34.612 24.4348 34.1804 24.5075C33.7489 24.5803 33.3401 24.2894 33.2673 23.8578C33.1364 23.0811 32.7601 22.3537 32.1994 21.793L32.195 21.7886L32.1951 21.7886C31.6385 21.2234 30.9252 20.8568 30.136 20.7253C29.7043 20.6534 29.4127 20.2451 29.4846 19.8134ZM28.7424 32.9111C29.1489 33.0732 29.3471 33.5341 29.185 33.9407L28.3501 36.035H30.6293L29.7943 33.9407C29.6322 33.5341 29.8304 33.0732 30.2369 32.9111C30.6435 32.7491 31.1044 32.9472 31.2665 33.3538L32.5343 36.534C32.6316 36.7781 32.6016 37.0546 32.4542 37.2721C32.3067 37.4896 32.061 37.6199 31.7982 37.6199H27.1811C26.9183 37.6199 26.6726 37.4896 26.5252 37.2721C26.3777 37.0546 26.3477 36.7781 26.445 36.534L27.7129 33.3538C27.875 32.9472 28.3359 32.7491 28.7424 32.9111Z" fill="#819E9C"/>
<defs>
<filter id="filter0_d_765_1518" x="0.6" y="0.6" width="57.8" height="62.0859" filterUnits="userSpaceOnUse" color-interpolation-filters="sRGB">
<feFlood flood-opacity="0" result="BackgroundImageFix"/>
<feColorMatrix in="SourceAlpha" type="matrix" values="0 0 0 0 0 0 0 0 0 0 0 0 0 0 0 0 0 0 127 0" result="hardAlpha"/>
<feOffset dy="1"/>
<feGaussianBlur stdDeviation="5.2"/>
<feComposite in2="hardAlpha" operator="out"/>
<feColorMatrix type="matrix" values="0 0 0 0 0 0 0 0 0 0 0 0 0 0 0 0 0 0 0.2 0"/>
<feBlend mode="normal" in2="BackgroundImageFix" result="effect1_dropShadow_765_1518"/>
<feBlend mode="normal" in="SourceGraphic" in2="effect1_dropShadow_765_1518" result="shape"/>
</filter>
</defs>
</svg>
