<svg width="128" height="128" viewBox="0 0 128 128" fill="none" xmlns="http://www.w3.org/2000/svg">
<g clip-path="url(#clip0_2909_17)">
<path d="M105.508 0H22.492C10.07 0 0 10.07 0 22.492V105.508C0 117.93 10.07 128 22.492 128H105.508C117.93 128 128 117.93 128 105.508V22.492C128 10.07 117.93 0 105.508 0Z" fill="white"/>
<path d="M105.508 0H22.492C10.07 0 0 10.07 0 22.492V105.508C0 117.93 10.07 128 22.492 128H105.508C117.93 128 128 117.93 128 105.508V22.492C128 10.07 117.93 0 105.508 0Z" fill="white"/>
<path d="M86.729 68.7658C88.0201 66.4132 91.4389 66.5305 92.5659 68.9658L96.6108 77.7066C97.0565 78.6697 97.9423 79.3571 98.9864 79.5497L108.477 81.3008C111.137 81.792 112.086 85.1151 110.086 86.9369L103.026 93.3688C102.233 94.0906 101.845 95.1547 101.986 96.2175L103.24 105.673C103.594 108.342 100.753 110.272 98.4024 108.96L89.9315 104.233C89.0101 103.719 87.897 103.681 86.9425 104.131L78.1678 108.267C75.7329 109.414 73.031 107.294 73.5667 104.656L75.465 95.3084C75.6785 94.2579 75.3636 93.1697 74.6226 92.3955L68.0189 85.495C66.1488 83.5406 67.3233 80.2903 70.0105 79.9828L79.5991 78.8852C80.6537 78.7645 81.5841 78.1397 82.0949 77.2089L86.729 68.7658Z" fill="black"/>
<path d="M39.2586 62.9771C51.2289 62.9771 60.9327 53.2733 60.9327 41.303C60.9327 29.3327 51.2289 19.6289 39.2586 19.6289C27.2883 19.6289 17.5845 29.3327 17.5845 41.303C17.5845 53.2733 27.2883 62.9771 39.2586 62.9771Z" fill="black"/>
<path d="M71.5654 57.2529V23.1524C71.5654 21.3004 73.8306 20.4024 75.0995 21.7514L107.174 55.8518C108.402 57.1572 107.477 59.2976 105.685 59.2976H73.6102C72.4811 59.2976 71.5654 58.382 71.5654 57.2529Z" fill="black"/>
<path d="M69.2276 110.178C69.2673 110.11 69.3654 110.11 69.4051 110.178C69.4444 110.246 69.3949 110.332 69.3164 110.332C69.2378 110.332 69.1884 110.246 69.2276 110.178Z" fill="#212121" fill-opacity="0.8"/>
<path fill-rule="evenodd" clip-rule="evenodd" d="M19.2202 74.4285C19.2202 73.2994 20.1357 72.3838 21.2649 72.3838H58.8879C60.017 72.3838 60.9327 73.2994 60.9327 74.4285V79.2124C60.9327 80.3419 60.017 81.2571 58.8879 81.2571H58.479C57.3499 81.2571 56.4343 82.1727 56.4343 83.3018V99.0888C56.4343 100.218 57.3499 101.133 58.479 101.133H58.8879C60.017 101.133 60.9327 102.049 60.9327 103.178V107.962C60.9327 109.091 60.017 110.007 58.8879 110.007H21.2649C20.1357 110.007 19.2202 109.091 19.2202 107.962V103.178C19.2202 102.049 20.1357 101.133 21.2649 101.133H21.6739C22.8032 101.133 23.7186 100.218 23.7186 99.0888V83.3018C23.7186 82.1727 22.8032 81.2571 21.6739 81.2571H21.2649C20.1357 81.2571 19.2202 80.3419 19.2202 79.2124V74.4285Z" fill="black"/>
</g>
<defs>
<clipPath id="clip0_2909_17">
<rect width="128" height="128" fill="white"/>
</clipPath>
</defs>
</svg>
